<svg height="512pt" viewBox="0 -3 512.00024 512" width="512pt" xmlns="http://www.w3.org/2000/svg"><path d="m501.363281 329.320312-52.253906 8.191407 47.976563-23.03125c4.582031-2.199219 6.511718-7.691407 4.3125-12.277344-2.1875-4.570313-7.683594-6.539063-12.273438-4.3125l-103.164062 49.519531-319.90625 50.15625c-5.023438.792969-8.445313 5.503906-7.664063 10.523438.710937 4.539062 4.621094 7.777344 9.074219 7.777344.476562 0 .957031-.039063 1.433594-.113282l259.410156-40.667968-236.425782 113.480468c-4.582031 2.199219-6.515624 7.691406-4.316406 12.273438 1.585938 3.292968 4.867188 5.21875 8.300782 5.21875 1.34375 0 2.683593-.285156 3.972656-.910156l291.613281-139.960938 112.769531-17.675781c5.015625-.789063 8.449219-5.5 7.667969-10.523438-.800781-5.019531-5.394531-8.441406-10.527344-7.667969zm0 0"/><path d="m352.386719 259.695312v-37.53125c0-.011718-.011719-.019531-.011719-.019531v-37.769531s-.007812-.019531 0-.027344v-121.75s.011719-.066406.011719-.101562c0 0-.011719-.066406-.011719-.101563v-.144531c-.007812-.765625-.257812-1.464844-.320312-2.210938-.15625-1.746093-.277344-3.496093-.753907-5.171874-.148437-.523438-.460937-1.003907-.644531-1.515626-.644531-1.871093-1.34375-3.71875-2.375-5.484374-.117188-.203126-.3125-.398438-.429688-.597657-17.628906-28.847656-84.953124-44.867187-155.296874-47.019531-5.449219-.1679688-10.914063-.25-16.367188-.25-5.457031 0-10.921875.0820312-16.371094.25-81.074218 2.476562-158.152344 23.378906-159.667968 61.140625-.011719.324219-.1289068.617187-.1406255.949219v.066406c.0039063.023438-.0078125.050781-.0078125.050781 0 .066407.0117188.101563.0117188.101563v197.21875c.3828122 40.863281 88.9179692 62.253906 176.1835932 62.253906 87.261719 0 175.816407-21.378906 176.191407-62.335938zm-198.378907-153.613281c-42.976562-11.289062-50.429687-30.164062-50.503906-30.390625-.425781-1.253906-.625-2.871094 1.074219-5.375 6.054687-8.917968 29.296875-19.386718 66.039063-21.308594.578124-.039062 1.148437-.066406 1.730468-.09375-13.710937 1.960938-24.191406 6.835938-28.78125 13.609376-2.855468 4.1875-3.5625 9.035156-2 13.636718 5.621094 16.601563 34.855469 22.664063 59.644532 21.449219 26.121093-1.371094 46.289062-8.953125 53.957031-20.253906 3.503906-5.179688 4.394531-11.113281 2.492187-16.734375-7.554687-22.332032-50.019531-32.011719-88.019531-29.996094-38.613281 2.03125-69.382813 13.273438-80.296875 29.359375-4.621094 6.808594-5.753906 14.269531-3.367188 21.328125.476563 1.582031 3.515626 9.929688 14.675782 19.453125-52.042969-8.632813-82.128906-25.195313-82.230469-38.195313v-.136718c0-.027344.015625-.054688.015625-.054688.339844-18.40625 60.40625-43.972656 157.773438-43.972656 6.09375 0 12.035156.097656 17.832031.292969 80.972656 2.6875 132.351562 23.34375 139.167969 40.097656.011718.03125.039062.058594.046874.085937.394532.984376.535157 1.941407.605469 2.898438.019531.21875.128907.449219.128907.660156v.140625c-.144532 18.402344-60.136719 44.027344-157.78125 44.027344-7.671876-.019531-15.015626-.234375-22.203126-.527344zm30.734376-57.25c30.941406.9375 52.988281 10.269531 55.507812 17.601563-.679688 3.082031-13.570312 11.398437-40.007812 12.789062-21.601563 1.132813-35.644532-4.222656-39.949219-7.582031 2.933593-1.820313 9.910156-4.546875 21.339843-5.144531 5.078126-.265625 8.976563-4.597656 8.703126-9.679688-.195313-3.632812-2.464844-6.652344-5.59375-7.984375zm-166.332032 210.863281v-167.894531c26.378906 18.945313 77.898438 29.941407 132.5625 32.527344.074219.019531.128906.039063.195313.054687.753906.195313 1.515625.277344 2.261719.277344.359374 0 .683593-.128906 1.03125-.175781 7.222656.292969 14.476562.496094 21.734374.496094 63.488282 0 127.363282-11.34375 157.78125-33.1875v61.335937c-.902343 15.667969-29.949218 25.128906-40.910156 28.6875-4.828125 1.574219-7.480468 6.761719-5.90625 11.601563 1.269532 3.882812 4.867188 6.351562 8.75 6.351562.9375 0 1.90625-.148437 2.84375-.453125 8.546875-2.777344 23.324219-7.617187 35.222656-16.046875v.359375c-1.246093 22.964844-51.996093 32.800782-71.128906 36.5l-1.441406.277344c-4.988281.964844-8.246094 5.796875-7.28125 10.78125.855469 4.398438 4.703125 7.453125 9.019531 7.453125.578125 0 1.167969-.054687 1.757813-.171875l1.433594-.277344c16.582031-3.203125 47.699218-9.300781 67.628906-23.710937v6.964843c-1.074219 19.726563-34.476563 33.511719-99.316406 40.964844l-2.246094.257813c-5.050782.578125-8.667969 5.152343-8.078125 10.195312.542969 4.691407 4.519531 8.140625 9.128906 8.140625.355469 0 .71875-.015625 1.074219-.0625l2.21875-.25c24.144531-2.78125 71.199218-8.273437 97.21875-27.511718v6.402343c-.171875 18.386719-60.277344 44.03125-157.78125 44.03125s-157.597656-25.625-157.773438-43.917969zm0 0"/></svg>